<?xml version="1.0" encoding="iso-8859-1"?>
<!-- Generator: Adobe Illustrator 17.1.0, SVG Export Plug-In . SVG Version: 6.00 Build 0)  -->
<!DOCTYPE svg PUBLIC "-//W3C//DTD SVG 1.1//EN" "http://www.w3.org/Graphics/SVG/1.1/DTD/svg11.dtd">
<svg version="1.1" id="Capa_1" xmlns="http://www.w3.org/2000/svg" xmlns:xlink="http://www.w3.org/1999/xlink" x="0px" y="0px"
	 viewBox="0 0 381.379 381.379" style="enable-background:new 0 0 381.379 381.379;" xml:space="preserve">
<path d="M356.379,27.837H25c-13.785,0-25,11.215-25,25v275.704c0,13.785,11.215,25,25,25h331.379c13.785,0,25-11.215,25-25V52.837
	C381.379,39.052,370.164,27.837,356.379,27.837z M298.106,240.017c0,19.495-19.633,37.69-43.889,40.657
	c-24.222,2.922-43.854-9.431-43.854-28.926c0-19.506,19.632-37.701,43.854-40.669c16.527-1.967,25.74,3.335,25.74,3.335v-73.954
	c0-9.258-10.018-5.935-10.018-5.935l-90.389,28.351c0,0-10.385,3.681-10.385,12.353v92.057c0,19.541-17.793,37.564-42.003,40.979
	c-24.256,3.45-43.889-8.534-43.889-28.04c0-19.495,19.633-38.092,43.889-41.508c16.493-2.335,23.9,2.645,23.9,2.645V133.538
	c0-12.398,10.018-25.292,22.416-28.846l102.213-31.26c12.399-3.554,22.416,3.635,22.416,16.033V240.017z"/>
<g>
</g>
<g>
</g>
<g>
</g>
<g>
</g>
<g>
</g>
<g>
</g>
<g>
</g>
<g>
</g>
<g>
</g>
<g>
</g>
<g>
</g>
<g>
</g>
<g>
</g>
<g>
</g>
<g>
</g>
</svg>
